{
    "accessors" : [
        {
            "bufferView" : 0,
            "componentType" : 5123,
            "count" : 84960,
            "max" : [
                14615
            ],
            "min" : [
                0
            ],
            "type" : "SCALAR"
        },
        {
            "bufferView" : 1,
            "componentType" : 5126,
            "count" : 14616,
            "max" : [
                19.818103790283203,
                19.818004608154297,
                20.321504592895508
            ],
            "min" : [
                -19.818103790283203,
                -19.818004608154297,
                -20.126605987548828
            ],
            "type" : "VEC3"
        },
        {
            "bufferView" : 2,
            "componentType" : 5126,
            "count" : 14616,
            "max" : [
                1.0,
                1.0,
                0.999908447265625
            ],
            "min" : [
                -1.0,
                -1.0,
                -1.0
            ],
            "type" : "VEC3"
        },
        {
            "bufferView" : 3,
            "componentType" : 5126,
            "count" : 14616,
            "max" : [
                1.0,
                1.0,
                0.5439392328262329,
                1.0
            ],
            "min" : [
                -1.0,
                -1.0,
                -0.34925493597984314,
                -1.0
            ],
            "type" : "VEC4"
        },
        {
            "bufferView" : 4,
            "componentType" : 5126,
            "count" : 14616,
            "max" : [
                1.000140905380249,
                1.0
            ],
            "min" : [
                0.0,
                0.0
            ],
            "type" : "VEC2"
        }
    ],
    "asset" : {
        "generator" : "Khronos Blender glTF 2.0 exporter",
        "version" : "2.0"
    },
    "bufferViews" : [
        {
            "buffer" : 0,
            "byteLength" : 169920,
            "byteOffset" : 0,
            "target" : 34963
        },
        {
            "buffer" : 0,
            "byteLength" : 175392,
            "byteOffset" : 169920,
            "target" : 34962
        },
        {
            "buffer" : 0,
            "byteLength" : 175392,
            "byteOffset" : 345312,
            "target" : 34962
        },
        {
            "buffer" : 0,
            "byteLength" : 233856,
            "byteOffset" : 520704,
            "target" : 34962
        },
        {
            "buffer" : 0,
            "byteLength" : 116928,
            "byteOffset" : 754560,
            "target" : 34962
        }
    ],
    "buffers" : [
        {
            "byteLength" : 871488,
            "uri" : "data:application/octet-stream;base64,"
        }
    ],
    "images" : [
        {
            "mimeType" : "image/jpeg",
            "name" : "Erde_mehr Kontrast",
            "uri" : "data:image/jpeg;base64,"
        }
    ],
    "materials" : [
        {
            "name" : "Material.001",
            "pbrMetallicRoughness" : {
                "baseColorFactor" : [
                    0.6400000190734865,
                    0.6400000190734865,
                    0.6400000190734865,
                    1.0
                ],
                "baseColorTexture" : {
                    "index" : 0
                },
                "metallicFactor" : 0.0
            }
        }
    ],
    "meshes" : [
        {
            "name" : "pSphereShape2",
            "primitives" : [
                {
                    "attributes" : {
                        "NORMAL" : 2,
                        "POSITION" : 1,
                        "TANGENT" : 3,
                        "TEXCOORD_0" : 4
                    },
                    "indices" : 0,
                    "material" : 0
                }
            ]
        }
    ],
    "nodes" : [
        {
            "mesh" : 0,
            "name" : "pSphereShape2",
            "rotation" : [
                0.7071068286895752,
                0.0,
                -0.0,
                0.7071067094802856
            ]
        }
    ],
    "samplers" : [
        {}
    ],
    "scene" : 0,
    "scenes" : [
        {
            "name" : "Scene",
            "nodes" : [
                0
            ]
        }
    ],
    "textures" : [
        {
            "sampler" : 0,
            "source" : 0
        }
    ]
}
